<?xml version="1.0" standalone="no"?>
<!DOCTYPE svg PUBLIC "-//W3C//DTD SVG 20010904//EN"
 "http://www.w3.org/TR/2001/REC-SVG-20010904/DTD/svg10.dtd">
<svg version="1.0" xmlns="http://www.w3.org/2000/svg"
 width="188.000000pt" height="31.000000pt" viewBox="0 0 188.000000 31.000000"
 preserveAspectRatio="xMidYMid meet">

<g transform="translate(0.000000,31.000000) scale(0.100000,-0.100000)"
fill="#000000" stroke="none">
<path d="M84 244 c3 -9 6 -36 6 -62 l0 -45 25 23 c18 17 25 34 25 62 0 36 -2
38 -31 38 -24 0 -30 -3 -25 -16z"/>
<path d="M216 236 c-23 -36 -5 -39 22 -5 17 22 20 29 9 29 -8 0 -22 -11 -31
-24z"/>
<path d="M375 155 l0 -105 35 0 35 0 0 105 0 105 -35 0 -35 0 0 -105z"/>
<path d="M558 184 l4 -76 23 22 c17 16 25 36 27 69 2 37 7 46 20 45 10 -1 15
2 12 7 -3 5 -24 9 -47 9 l-42 0 3 -76z"/>
<path d="M660 255 c0 -10 29 -24 34 -17 3 6 -3 12 -14 15 -11 3 -20 4 -20 2z"/>
<path d="M1078 248 c7 -7 12 -34 12 -62 l0 -49 24 22 c15 14 25 37 28 62 l4
39 -40 0 c-31 0 -37 -3 -28 -12z"/>
<path d="M1374 250 c-33 -13 -64 -59 -64 -96 0 -44 41 -91 87 -100 47 -9 109
11 129 41 19 29 21 84 4 115 -21 40 -104 61 -156 40z m80 -13 c44 -32 37 -148
-11 -170 -23 -10 -28 -8 -49 16 -31 37 -33 103 -3 141 23 29 37 32 63 13z"/>
<path d="M1714 238 l-19 -22 25 17 c32 22 52 21 84 -4 25 -20 26 -20 26 -1 0
15 -9 21 -37 26 -55 9 -58 8 -79 -16z"/>
<path d="M880 235 c0 -11 -7 -29 -15 -39 -17 -23 -20 -50 -4 -41 6 4 16 -1 23
-10 11 -15 13 -15 25 -1 7 8 9 21 5 28 -4 6 -8 22 -9 35 -1 30 -25 56 -25 28z"/>
<path d="M1680 239 c0 -5 5 -7 10 -4 6 3 10 8 10 11 0 2 -4 4 -10 4 -5 0 -10
-5 -10 -11z"/>
<path d="M671 193 c-37 -45 -38 -53 -7 -53 33 0 56 25 56 61 0 39 -12 37 -49
-8z"/>
<path d="M1646 214 c-9 -24 -7 -28 9 -14 17 14 20 30 6 30 -5 0 -12 -7 -15
-16z"/>
<path d="M1658 183 c-32 -33 -34 -43 -13 -83 18 -35 72 -55 123 -45 49 9 55
14 41 31 -10 13 -15 12 -31 -6 -41 -44 -79 -15 -87 69 l-6 62 -27 -28z"/>
<path d="M175 177 c-15 -23 -16 -32 -5 -56 16 -40 40 -59 79 -67 l34 -7 -38
58 c-20 32 -40 67 -44 79 -8 19 -9 19 -26 -7z"/>
<path d="M114 138 c-12 -12 -24 -38 -27 -55 -6 -32 -5 -33 26 -33 32 0 32 1
29 43 -5 70 -5 71 -28 45z"/>
<path d="M1114 138 c-12 -12 -24 -38 -27 -55 l-6 -33 74 0 c69 0 75 2 75 21 0
19 -1 19 -22 5 -12 -9 -32 -16 -45 -16 -19 0 -22 6 -25 51 l-3 51 -21 -24z"/>
<path d="M1790 132 c0 -18 29 -52 43 -52 4 0 7 16 7 35 0 31 -3 35 -25 35 -18
0 -25 -5 -25 -18z"/>
<path d="M924 117 c-11 -12 -18 -32 -16 -44 3 -19 10 -23 43 -23 l39 0 -21 43
c-12 23 -22 43 -24 44 -1 2 -10 -7 -21 -20z"/>
<path d="M583 107 c-11 -12 -23 -30 -26 -39 -5 -15 0 -18 28 -18 33 0 34 0 28
38 -7 47 -6 46 -30 19z"/>
<path d="M822 105 c-14 -29 -3 -38 19 -15 12 12 12 19 3 27 -8 9 -14 5 -22
-12z"/>
</g>
</svg>
